<?xml version="1.0" encoding="UTF-8"?>
<svg xmlns="http://www.w3.org/2000/svg" xmlns:xlink="http://www.w3.org/1999/xlink" viewBox="0 0 24 24" width="24px" height="24px">
<g id="surface1680274">
<path style=" stroke:none;fill-rule:nonzero;fill:rgb(5.490196%,9.411765%,47.058824%);fill-opacity:1;" d="M 9 3 L 9 4 L 4 4 C 2.90625 4 2 4.90625 2 6 L 2 18 C 2 19.09375 2.90625 20 4 20 L 20 20 C 21.09375 20 22 19.09375 22 18 L 22 6 C 22 4.90625 21.09375 4 20 4 L 15 4 L 15 3 Z M 4 6 L 20 6 L 20 14 L 4 14 Z M 12 10 C 11.449219 10 11 10.449219 11 11 C 11 11.550781 11.449219 12 12 12 C 12.550781 12 13 11.550781 13 11 C 13 10.449219 12.550781 10 12 10 Z M 4 16 L 20 16 L 20 18 L 4 18 Z M 4 16 "/>
</g>
</svg>
